<svg viewBox="0 0 142.6478 32" x="0" y="0" fill="none" xmlns="http://www.w3.org/2000/svg"><g id="Group" xmlns="http://www.w3.org/2000/svg">
<path id="Vector" d="M69.999,11.9122c1.959,-1.959 4.364,-2.8109 7.185,-2.5825c2.813,0.2284 4.98,1.4871 6.444,3.7262c0.677,-0.6536 1.266,-1.3421 1.978,-1.8873c2.214,-1.6905 4.783,-2.159 7.552,-1.7255c3.842,0.6018 6.233,3.5878 6.767,7.0989c0.106,0.7002 0.151,1.4138 0.154,2.1207c0.014,3.7545 0.009,7.509 0.006,11.2618c-0.002,0.952 -0.307,1.4355 -1.014,1.6639c-1.142,0.3684 -2.218,-0.3384 -2.222,-1.4838c-0.009,-3.8396 -0.003,-7.6774 -0.005,-11.517c0,-1.3521 -0.193,-2.6708 -0.947,-3.8512c-1.265,-1.9873 -3.2,-2.7559 -5.58,-2.5041c-2.466,0.2601 -4.136,1.5538 -4.906,3.7712c-0.25,0.7235 -0.338,1.5255 -0.345,2.2924c-0.034,3.8895 -0.013,7.7791 -0.018,11.6686c-0.002,1.2721 -0.977,1.989 -2.184,1.6289c-0.722,-0.2151 -1.094,-0.7252 -1.099,-1.5638c-0.011,-1.4372 -0.002,-2.8743 -0.004,-4.3131c-0.002,-2.5874 0.014,-5.1749 -0.018,-7.7624c-0.017,-1.3421 -0.381,-2.6125 -1.249,-3.7078c-1.809,-2.2758 -5.399,-2.7559 -7.973,-1.0854c-1.921,1.2487 -2.641,3.0426 -2.645,5.1583c-0.005,3.7545 -0.001,7.509 -0.001,11.2619c0,0.2034 0.001,0.4068 -0.007,0.6085c-0.039,0.907 -0.676,1.4972 -1.603,1.4905c-0.947,-0.0067 -1.619,-0.6252 -1.62,-1.5388c-0.006,-6.342 -0.006,-12.6824 0,-19.0244c0.001,-0.9586 0.663,-1.6021 1.609,-1.6138c0.951,-0.0117 1.576,0.6052 1.614,1.5972c0.008,0.2484 0.001,0.4968 0.001,0.7452c0.043,0.0217 0.087,0.0433 0.13,0.0667z" fill="white"/>
<path id="Vector_2" d="M110.835,13.2943c0.768,-0.6619 1.438,-1.3488 2.22,-1.8973c5.834,-4.0963 14.202,-2.0706 17.251,4.1546c2.363,4.8232 1.124,10.5901 -3.152,13.8177c-3.916,2.956 -8.354,3.3828 -12.864,1.4722c-4.364,-1.8489 -6.676,-5.2634 -6.765,-9.7514c-0.129,-6.5071 -0.026,-13.0175 -0.012,-19.5245c0.002,-0.9603 0.672,-1.5739 1.647,-1.5655c1.005,0.0083 1.663,0.6168 1.672,1.6122c0.017,2.2657 0.007,4.5314 0.007,6.7971c-0.004,1.6188 -0.004,3.2394 -0.004,4.8849zM128.217,21.0784c-0.001,-2.1524 -0.459,-3.7712 -1.26,-4.9966c-1.597,-2.4424 -3.932,-3.7145 -6.956,-3.8995c-3.128,-0.1918 -5.714,0.8486 -7.522,3.246c-2.181,2.8942 -2.355,6.0619 -0.706,9.2112c2.209,4.2213 7.345,5.4084 11.358,3.6662c3.447,-1.4955 4.962,-4.2314 5.086,-7.2273z" fill="#EC2323"/>
<path id="Vector_3" d="M22.217,21.6136c0.367,3.021 1.785,5.3384 4.657,6.6288c3.345,1.5038 6.616,1.177 9.694,-0.7886c0.306,-0.1967 0.643,-0.3868 0.996,-0.4752c0.644,-0.16 1.363,0.2251 1.642,0.8003c0.278,0.5785 0.129,1.1337 -0.465,1.5672c-1.781,1.3004 -3.799,2.119 -6.031,2.389c-4.031,0.4885 -7.61,-0.4551 -10.468,-3.2593c-2.296,-2.2541 -3.166,-5.0566 -3.115,-8.1276c0.037,-2.2507 0.567,-4.3964 1.892,-6.3036c1.936,-2.7859 4.657,-4.3731 8.211,-4.6732c3.415,-0.2884 6.425,0.5402 8.832,2.8876c2.31,2.2524 3.173,5.0416 3.103,8.1209c-0.015,0.6119 -0.435,1.0487 -1.073,1.1604c-0.298,0.0516 -0.606,0.0683 -0.909,0.0683c-5.409,0.0033 -10.818,0.0033 -16.227,0.0033c-0.223,0.0017 -0.45,0.0017 -0.739,0.0017zM38.115,19.0328c-0.257,-3.5828 -3.022,-7.2756 -8.466,-6.9505c-3.746,0.2234 -7.349,3.5744 -7.278,6.9505c5.235,0 10.47,0 15.744,0z" fill="white"/>
<path id="Vector_4" d="M7.591,10.3117c1.564,0 3.051,-0.0033 4.538,0.0033c0.25,0.0017 0.506,0.0084 0.747,0.0617c0.679,0.1484 1.11,0.6886 1.092,1.3288c-0.018,0.6285 -0.44,1.1137 -1.115,1.2504c-0.225,0.0466 -0.463,0.0516 -0.695,0.0516c-1.489,0.005 -2.98,0.0017 -4.501,0.0017c-0.025,0.1351 -0.064,0.2451 -0.064,0.3535c0.007,3.6694 -0.018,7.3389 0.039,11.0084c0.034,2.1357 1.852,4.2597 4.45,4.2247c0.466,-0.0067 0.936,-0.0117 1.4,0.0283c0.83,0.0717 1.353,0.6069 1.417,1.3988c0.06,0.7502 -0.437,1.3971 -1.234,1.5588c-1.131,0.2284 -2.255,0.0851 -3.363,-0.1467c-3.198,-0.6685 -5.608,-3.296 -5.884,-6.477c-0.112,-1.2771 -0.092,-2.5675 -0.099,-3.8512c-0.015,-2.6709 -0.004,-5.3417 -0.004,-8.0993c-0.553,0 -1.083,0 -1.615,0c-0.431,0 -0.863,0.0167 -1.294,-0.0083c-0.846,-0.0483 -1.399,-0.5802 -1.406,-1.3187c-0.007,-0.7536 0.576,-1.3321 1.427,-1.3621c0.771,-0.0267 1.546,-0.0084 2.319,-0.0084c0.159,0 0.321,0 0.567,0c0,-0.2067 0,-0.3834 0,-0.5618c0,-1.8773 -0.007,-3.7545 0.004,-5.6318c0.005,-1.0853 0.675,-1.6939 1.774,-1.6405c0.713,0.035 1.3,0.5018 1.426,1.1654c0.053,0.28 0.069,0.5718 0.071,0.8569c0.005,1.9139 0.003,3.8229 0.003,5.8135z" fill="white"/>
<path id="Vector_5" d="M50.037,12.7641c0.793,-0.6952 1.408,-1.3654 2.154,-1.8656c2.429,-1.6321 5.113,-2.0423 7.976,-1.2337c0.977,0.2768 1.376,0.942 1.158,1.7206c-0.188,0.6702 -0.843,0.9519 -1.885,0.8652c-1.613,-0.135 -3.23,-0.2284 -4.802,0.2618c-2.39,0.7435 -4.037,2.1523 -4.475,4.5848c-0.074,0.4134 -0.062,0.8419 -0.062,1.2637c-0.003,3.7862 -0.002,7.574 -0.003,11.3602c0,0.1851 0.005,0.3735 -0.016,0.5569c-0.11,0.9453 -0.71,1.4404 -1.685,1.4004c-0.959,-0.0383 -1.498,-0.5452 -1.501,-1.5021c-0.014,-3.9046 -0.009,-7.8092 -0.011,-11.7154c0,-2.4674 -0.009,-4.9365 0.007,-7.404c0.007,-1.1987 0.913,-1.8022 2.142,-1.4738c0.581,0.1551 0.952,0.5152 0.994,1.0687c0.048,0.6719 0.009,1.3471 0.009,2.1123z" fill="white"/>
<path id="Vector_6" d="M138.689,20.5899c0,-3.1294 -0.005,-6.257 0.002,-9.3863c0.004,-1.2104 0.945,-1.9323 2.11,-1.6356c0.594,0.1518 0.955,0.5285 1.079,1.0821c0.068,0.295 0.078,0.6051 0.078,0.9069c0.004,6.0369 0.004,12.0755 0.002,18.1124c0,0.2017 -0.007,0.4068 -0.03,0.6068c-0.108,0.8803 -0.787,1.4472 -1.659,1.3938c-0.943,-0.0583 -1.576,-0.6585 -1.578,-1.5438c-0.009,-3.176 -0.004,-6.357 -0.004,-9.5363z" fill="white"/>
<path id="Vector_7" d="M138.031,3.0166c0.006,-1.2337 1.03,-2.1674 2.344,-2.139c1.289,0.0283 2.289,0.9886 2.273,2.1773c-0.016,1.2138 -1.048,2.1624 -2.349,2.1607c-1.323,-0.0017 -2.273,-0.9219 -2.268,-2.199z" fill="white"/>
<path id="Vector_8" d="M116.844,20.5865c0.005,-1.3871 1.157,-2.4374 2.636,-2.4041c1.448,0.0334 2.574,1.1104 2.554,2.4475c-0.019,1.3654 -1.178,2.4307 -2.641,2.429c-1.487,-0.0016 -2.556,-1.0369 -2.549,-2.4724z" fill="#A6A6A6"/>
</g></svg>