<svg xmlns="http://www.w3.org/2000/svg" width="900" height="600" viewBox="0 0 900 600">
  <rect width="100%" height="100%" fill="#008000"/>
  <rect y="200.000000" width="100%" height="200.000000" fill="#ffffff"/>
  <rect y="400.000000" width="100%" height="200.000000" fill="#000000"/>
  <!-- three red stars centered in the white stripe -->
  <polygon points="225.000,264.000 235.580,285.438 259.238,288.875 242.119,305.562 246.160,329.125 225.000,318.000 203.840,329.125 207.881,305.562 190.762,288.875 214.420,285.438" fill="#d70000" stroke="none"/>
  <polygon points="450.000,264.000 460.580,285.438 484.238,288.875 467.119,305.562 471.160,329.125 450.000,318.000 428.840,329.125 432.881,305.562 415.762,288.875 439.420,285.438" fill="#d70000" stroke="none"/>
  <polygon points="675.000,264.000 685.580,285.438 709.238,288.875 692.119,305.562 696.160,329.125 675.000,318.000 653.840,329.125 657.881,305.562 640.762,288.875 664.420,285.438" fill="#d70000" stroke="none"/>
</svg>