<svg xmlns="http://www.w3.org/2000/svg" width="1900" height="1000" viewBox="0 0 1900.0 1000.0">
<rect x="0" y="0.000000" width="1900.0" height="76.923077" fill="#bf0a30"/>
<rect x="0" y="76.923077" width="1900.0" height="76.923077" fill="#ffffff"/>
<rect x="0" y="153.846154" width="1900.0" height="76.923077" fill="#bf0a30"/>
<rect x="0" y="230.769231" width="1900.0" height="76.923077" fill="#ffffff"/>
<rect x="0" y="307.692308" width="1900.0" height="76.923077" fill="#bf0a30"/>
<rect x="0" y="384.615385" width="1900.0" height="76.923077" fill="#ffffff"/>
<rect x="0" y="461.538462" width="1900.0" height="76.923077" fill="#bf0a30"/>
<rect x="0" y="538.461538" width="1900.0" height="76.923077" fill="#ffffff"/>
<rect x="0" y="615.384615" width="1900.0" height="76.923077" fill="#bf0a30"/>
<rect x="0" y="692.307692" width="1900.0" height="76.923077" fill="#ffffff"/>
<rect x="0" y="769.230769" width="1900.0" height="76.923077" fill="#bf0a30"/>
<rect x="0" y="846.153846" width="1900.0" height="76.923077" fill="#ffffff"/>
<rect x="0" y="923.076923" width="1900.0" height="76.923077" fill="#bf0a30"/>
<rect x="0" y="0" width="760.000000" height="538.461538" fill="#3c3b6e"/>
<polygon points="63.333,6.838 70.115,20.580 85.281,22.783 74.307,33.480 76.898,48.584 63.333,41.453 49.769,48.584 52.360,33.480 41.386,22.783 56.551,20.580" fill="#ffffff" stroke="none"/>
<polygon points="190.000,6.838 196.782,20.580 211.947,22.783 200.974,33.480 203.564,48.584 190.000,41.453 176.436,48.584 179.026,33.480 168.053,22.783 183.218,20.580" fill="#ffffff" stroke="none"/>
<polygon points="316.667,6.838 323.449,20.580 338.614,22.783 327.640,33.480 330.231,48.584 316.667,41.453 303.102,48.584 305.693,33.480 294.719,22.783 309.885,20.580" fill="#ffffff" stroke="none"/>
<polygon points="443.333,6.838 450.115,20.580 465.281,22.783 454.307,33.480 456.898,48.584 443.333,41.453 429.769,48.584 432.360,33.480 421.386,22.783 436.551,20.580" fill="#ffffff" stroke="none"/>
<polygon points="570.000,6.838 576.782,20.580 591.947,22.783 580.974,33.480 583.564,48.584 570.000,41.453 556.436,48.584 559.026,33.480 548.053,22.783 563.218,20.580" fill="#ffffff" stroke="none"/>
<polygon points="696.667,6.838 703.449,20.580 718.614,22.783 707.640,33.480 710.231,48.584 696.667,41.453 683.102,48.584 685.693,33.480 674.719,22.783 689.885,20.580" fill="#ffffff" stroke="none"/>
<polygon points="76.000,66.667 82.782,80.409 97.947,82.612 86.974,93.309 89.564,108.413 76.000,101.282 62.436,108.413 65.026,93.309 54.053,82.612 69.218,80.409" fill="#ffffff" stroke="none"/>
<polygon points="228.000,66.667 234.782,80.409 249.947,82.612 238.974,93.309 241.564,108.413 228.000,101.282 214.436,108.413 217.026,93.309 206.053,82.612 221.218,80.409" fill="#ffffff" stroke="none"/>
<polygon points="380.000,66.667 386.782,80.409 401.947,82.612 390.974,93.309 393.564,108.413 380.000,101.282 366.436,108.413 369.026,93.309 358.053,82.612 373.218,80.409" fill="#ffffff" stroke="none"/>
<polygon points="532.000,66.667 538.782,80.409 553.947,82.612 542.974,93.309 545.564,108.413 532.000,101.282 518.436,108.413 521.026,93.309 510.053,82.612 525.218,80.409" fill="#ffffff" stroke="none"/>
<polygon points="684.000,66.667 690.782,80.409 705.947,82.612 694.974,93.309 697.564,108.413 684.000,101.282 670.436,108.413 673.026,93.309 662.053,82.612 677.218,80.409" fill="#ffffff" stroke="none"/>
<polygon points="63.333,126.496 70.115,140.238 85.281,142.441 74.307,153.138 76.898,168.242 63.333,161.111 49.769,168.242 52.360,153.138 41.386,142.441 56.551,140.238" fill="#ffffff" stroke="none"/>
<polygon points="190.000,126.496 196.782,140.238 211.947,142.441 200.974,153.138 203.564,168.242 190.000,161.111 176.436,168.242 179.026,153.138 168.053,142.441 183.218,140.238" fill="#ffffff" stroke="none"/>
<polygon points="316.667,126.496 323.449,140.238 338.614,142.441 327.640,153.138 330.231,168.242 316.667,161.111 303.102,168.242 305.693,153.138 294.719,142.441 309.885,140.238" fill="#ffffff" stroke="none"/>
<polygon points="443.333,126.496 450.115,140.238 465.281,142.441 454.307,153.138 456.898,168.242 443.333,161.111 429.769,168.242 432.360,153.138 421.386,142.441 436.551,140.238" fill="#ffffff" stroke="none"/>
<polygon points="570.000,126.496 576.782,140.238 591.947,142.441 580.974,153.138 583.564,168.242 570.000,161.111 556.436,168.242 559.026,153.138 548.053,142.441 563.218,140.238" fill="#ffffff" stroke="none"/>
<polygon points="696.667,126.496 703.449,140.238 718.614,142.441 707.640,153.138 710.231,168.242 696.667,161.111 683.102,168.242 685.693,153.138 674.719,142.441 689.885,140.238" fill="#ffffff" stroke="none"/>
<polygon points="76.000,186.325 82.782,200.067 97.947,202.271 86.974,212.967 89.564,228.071 76.000,220.940 62.436,228.071 65.026,212.967 54.053,202.271 69.218,200.067" fill="#ffffff" stroke="none"/>
<polygon points="228.000,186.325 234.782,200.067 249.947,202.271 238.974,212.967 241.564,228.071 228.000,220.940 214.436,228.071 217.026,212.967 206.053,202.271 221.218,200.067" fill="#ffffff" stroke="none"/>
<polygon points="380.000,186.325 386.782,200.067 401.947,202.271 390.974,212.967 393.564,228.071 380.000,220.940 366.436,228.071 369.026,212.967 358.053,202.271 373.218,200.067" fill="#ffffff" stroke="none"/>
<polygon points="532.000,186.325 538.782,200.067 553.947,202.271 542.974,212.967 545.564,228.071 532.000,220.940 518.436,228.071 521.026,212.967 510.053,202.271 525.218,200.067" fill="#ffffff" stroke="none"/>
<polygon points="684.000,186.325 690.782,200.067 705.947,202.271 694.974,212.967 697.564,228.071 684.000,220.940 670.436,228.071 673.026,212.967 662.053,202.271 677.218,200.067" fill="#ffffff" stroke="none"/>
<polygon points="63.333,246.154 70.115,259.896 85.281,262.100 74.307,272.796 76.898,287.900 63.333,280.769 49.769,287.900 52.360,272.796 41.386,262.100 56.551,259.896" fill="#ffffff" stroke="none"/>
<polygon points="190.000,246.154 196.782,259.896 211.947,262.100 200.974,272.796 203.564,287.900 190.000,280.769 176.436,287.900 179.026,272.796 168.053,262.100 183.218,259.896" fill="#ffffff" stroke="none"/>
<polygon points="316.667,246.154 323.449,259.896 338.614,262.100 327.640,272.796 330.231,287.900 316.667,280.769 303.102,287.900 305.693,272.796 294.719,262.100 309.885,259.896" fill="#ffffff" stroke="none"/>
<polygon points="443.333,246.154 450.115,259.896 465.281,262.100 454.307,272.796 456.898,287.900 443.333,280.769 429.769,287.900 432.360,272.796 421.386,262.100 436.551,259.896" fill="#ffffff" stroke="none"/>
<polygon points="570.000,246.154 576.782,259.896 591.947,262.100 580.974,272.796 583.564,287.900 570.000,280.769 556.436,287.900 559.026,272.796 548.053,262.100 563.218,259.896" fill="#ffffff" stroke="none"/>
<polygon points="696.667,246.154 703.449,259.896 718.614,262.100 707.640,272.796 710.231,287.900 696.667,280.769 683.102,287.900 685.693,272.796 674.719,262.100 689.885,259.896" fill="#ffffff" stroke="none"/>
<polygon points="76.000,305.983 82.782,319.725 97.947,321.929 86.974,332.625 89.564,347.729 76.000,340.598 62.436,347.729 65.026,332.625 54.053,321.929 69.218,319.725" fill="#ffffff" stroke="none"/>
<polygon points="228.000,305.983 234.782,319.725 249.947,321.929 238.974,332.625 241.564,347.729 228.000,340.598 214.436,347.729 217.026,332.625 206.053,321.929 221.218,319.725" fill="#ffffff" stroke="none"/>
<polygon points="380.000,305.983 386.782,319.725 401.947,321.929 390.974,332.625 393.564,347.729 380.000,340.598 366.436,347.729 369.026,332.625 358.053,321.929 373.218,319.725" fill="#ffffff" stroke="none"/>
<polygon points="532.000,305.983 538.782,319.725 553.947,321.929 542.974,332.625 545.564,347.729 532.000,340.598 518.436,347.729 521.026,332.625 510.053,321.929 525.218,319.725" fill="#ffffff" stroke="none"/>
<polygon points="684.000,305.983 690.782,319.725 705.947,321.929 694.974,332.625 697.564,347.729 684.000,340.598 670.436,347.729 673.026,332.625 662.053,321.929 677.218,319.725" fill="#ffffff" stroke="none"/>
<polygon points="63.333,365.812 70.115,379.554 85.281,381.758 74.307,392.454 76.898,407.559 63.333,400.427 49.769,407.559 52.360,392.454 41.386,381.758 56.551,379.554" fill="#ffffff" stroke="none"/>
<polygon points="190.000,365.812 196.782,379.554 211.947,381.758 200.974,392.454 203.564,407.559 190.000,400.427 176.436,407.559 179.026,392.454 168.053,381.758 183.218,379.554" fill="#ffffff" stroke="none"/>
<polygon points="316.667,365.812 323.449,379.554 338.614,381.758 327.640,392.454 330.231,407.559 316.667,400.427 303.102,407.559 305.693,392.454 294.719,381.758 309.885,379.554" fill="#ffffff" stroke="none"/>
<polygon points="443.333,365.812 450.115,379.554 465.281,381.758 454.307,392.454 456.898,407.559 443.333,400.427 429.769,407.559 432.360,392.454 421.386,381.758 436.551,379.554" fill="#ffffff" stroke="none"/>
<polygon points="570.000,365.812 576.782,379.554 591.947,381.758 580.974,392.454 583.564,407.559 570.000,400.427 556.436,407.559 559.026,392.454 548.053,381.758 563.218,379.554" fill="#ffffff" stroke="none"/>
<polygon points="696.667,365.812 703.449,379.554 718.614,381.758 707.640,392.454 710.231,407.559 696.667,400.427 683.102,407.559 685.693,392.454 674.719,381.758 689.885,379.554" fill="#ffffff" stroke="none"/>
<polygon points="76.000,425.641 82.782,439.383 97.947,441.587 86.974,452.284 89.564,467.388 76.000,460.256 62.436,467.388 65.026,452.284 54.053,441.587 69.218,439.383" fill="#ffffff" stroke="none"/>
<polygon points="228.000,425.641 234.782,439.383 249.947,441.587 238.974,452.284 241.564,467.388 228.000,460.256 214.436,467.388 217.026,452.284 206.053,441.587 221.218,439.383" fill="#ffffff" stroke="none"/>
<polygon points="380.000,425.641 386.782,439.383 401.947,441.587 390.974,452.284 393.564,467.388 380.000,460.256 366.436,467.388 369.026,452.284 358.053,441.587 373.218,439.383" fill="#ffffff" stroke="none"/>
<polygon points="532.000,425.641 538.782,439.383 553.947,441.587 542.974,452.284 545.564,467.388 532.000,460.256 518.436,467.388 521.026,452.284 510.053,441.587 525.218,439.383" fill="#ffffff" stroke="none"/>
<polygon points="684.000,425.641 690.782,439.383 705.947,441.587 694.974,452.284 697.564,467.388 684.000,460.256 670.436,467.388 673.026,452.284 662.053,441.587 677.218,439.383" fill="#ffffff" stroke="none"/>
<polygon points="63.333,485.470 70.115,499.212 85.281,501.416 74.307,512.113 76.898,527.217 63.333,520.085 49.769,527.217 52.360,512.113 41.386,501.416 56.551,499.212" fill="#ffffff" stroke="none"/>
<polygon points="190.000,485.470 196.782,499.212 211.947,501.416 200.974,512.113 203.564,527.217 190.000,520.085 176.436,527.217 179.026,512.113 168.053,501.416 183.218,499.212" fill="#ffffff" stroke="none"/>
<polygon points="316.667,485.470 323.449,499.212 338.614,501.416 327.640,512.113 330.231,527.217 316.667,520.085 303.102,527.217 305.693,512.113 294.719,501.416 309.885,499.212" fill="#ffffff" stroke="none"/>
<polygon points="443.333,485.470 450.115,499.212 465.281,501.416 454.307,512.113 456.898,527.217 443.333,520.085 429.769,527.217 432.360,512.113 421.386,501.416 436.551,499.212" fill="#ffffff" stroke="none"/>
<polygon points="570.000,485.470 576.782,499.212 591.947,501.416 580.974,512.113 583.564,527.217 570.000,520.085 556.436,527.217 559.026,512.113 548.053,501.416 563.218,499.212" fill="#ffffff" stroke="none"/>
<polygon points="696.667,485.470 703.449,499.212 718.614,501.416 707.640,512.113 710.231,527.217 696.667,520.085 683.102,527.217 685.693,512.113 674.719,501.416 689.885,499.212" fill="#ffffff" stroke="none"/>
</svg>